<svg width="1245" height="99" viewBox="0 0 1245 99" fill="none" xmlns="http://www.w3.org/2000/svg">
<path fill-rule="evenodd" clip-rule="evenodd" d="M60.5784 120.973C22.0955 120.973 0 95.7471 0 61.4991C0 22.4637 24.6733 0 60.7626 0C96.6683 0 118.948 21.7272 118.948 57.6324V62.6039H38.483C35.3528 62.4197 31.6702 60.3943 29.6448 58.1848L25.0415 63.3404C27.9876 65.9182 30.9337 69.7849 31.4861 72.5468C34.9845 88.3819 45.2957 95.563 62.2356 95.563C76.7818 95.563 86.3565 88.5661 89.119 77.3342H119.132C115.449 101.271 96.1159 120.973 60.5784 120.973ZM88.9349 45.664C86.7248 31.3019 77.15 23.9368 60.0261 23.9368C44.0068 23.9368 33.1432 32.4067 30.7495 45.664H88.9349ZM165.164 33.3274L171.609 34.0639C178.237 11.2319 189.653 0.184129 208.987 0.184129C228.136 0.184129 238.632 11.6001 241.578 33.6956H248.206C253.73 11.6001 266.988 0.184129 288.347 0.184129C313.572 0.184129 326.645 17.4923 326.645 53.3974V118.763H296.08V56.7117C296.08 35.9052 290.188 26.8828 275.458 26.8828C256.492 26.8828 249.311 43.4545 249.311 70.5214V118.763H218.562V53.0292C218.562 35.721 211.565 26.8828 198.492 26.8828C178.974 26.8828 171.793 45.4799 171.793 66.8388V118.763H141.227V2.39368H171.241V5.708C171.241 22.2796 165.164 24.8574 165.164 33.3274ZM406.557 120.973C368.074 120.973 345.979 95.7471 345.979 61.4991C345.979 22.4637 370.652 0 406.742 0C442.647 0 464.926 21.7272 464.926 57.6324V62.6039H384.462C381.332 62.4197 377.649 60.3943 375.624 58.1848L371.021 63.3404C373.967 65.9182 376.913 69.7849 377.465 72.5468C380.963 88.3819 391.275 95.563 408.215 95.563C422.761 95.563 432.335 88.5661 435.097 77.3342H465.11C461.428 101.271 442.094 120.973 406.557 120.973ZM434.913 45.664C432.704 31.3019 423.129 23.9368 406.005 23.9368C389.986 23.9368 379.122 32.4067 376.729 45.664H434.913ZM487.206 118.763V2.39368H517.219V5.708C517.219 23.5685 511.143 26.3305 511.143 35.5369L517.587 36.2734C523.848 13.0732 532.133 0.184129 560.305 0.184129L559.016 32.4067C555.886 32.0385 552.94 32.0385 550.362 32.0385C528.819 32.0385 517.771 44.5592 517.771 68.6801V118.763H487.206ZM642.243 103.296C646.662 102.56 651.081 102.192 655.132 102.192C676.675 102.192 692.694 111.95 692.694 129.811C692.694 161.297 656.42 164.795 574.667 164.795V138.833C643.9 138.833 662.865 137.728 662.865 125.208C662.865 118.027 657.157 114.896 643.9 114.896C633.957 114.896 612.045 117.29 589.95 121.525L585.899 102.56C609.283 98.509 633.957 92.9851 645.557 86.1724V81.0168C633.773 85.0676 622.172 87.2772 611.677 87.2772C587.556 87.2772 569.327 73.8357 569.327 46.7688C569.327 17.124 593.08 0.184129 627.144 0.184129C650.344 0.184129 668.021 12.7049 669.494 30.013H675.018C678.884 9.02233 686.433 0.184129 702.637 0.184129H705.583L704.294 31.6702H700.243C694.167 31.6702 689.932 32.5908 686.618 34.6163C688.643 39.0354 689.748 43.6386 689.748 48.7942C689.748 73.6516 673.36 91.5121 642.058 100.166L642.243 103.296ZM659.919 47.3212C659.919 33.6956 648.503 25.4098 629.538 25.4098C610.572 25.4098 599.156 33.6956 599.156 47.3212C599.156 62.2356 609.652 68.8643 629.722 68.8643C649.608 68.8643 659.919 62.2356 659.919 47.3212ZM774.263 120.973C735.78 120.973 713.685 95.7471 713.685 61.4991C713.685 22.4637 738.358 0 774.447 0C810.352 0 832.632 21.7272 832.632 57.6324V62.6039H752.168C749.037 62.4197 745.355 60.3943 743.329 58.1848L738.726 63.3404C741.672 65.9182 744.618 69.7849 745.171 72.5468C748.669 88.3819 758.98 95.563 775.92 95.563C790.466 95.563 800.041 88.5661 802.803 77.3342H832.816C829.133 101.271 809.8 120.973 774.263 120.973ZM802.619 45.664C800.409 31.3019 790.835 23.9368 773.711 23.9368C757.691 23.9368 746.828 32.4067 744.434 45.664H802.619ZM878.848 33.3274L885.293 34.0639C891.737 12.3367 906.468 0.184129 929.3 0.184129C958.024 0.184129 972.57 17.4923 972.57 53.3974V118.763H942.005V56.7117C942.005 35.9052 934.639 26.8828 916.963 26.8828C894.315 26.8828 885.477 45.4799 885.477 66.8388V118.763H854.911V2.39368H884.924V5.708C884.924 22.2796 878.848 24.8574 878.848 33.3274ZM1053.95 120.973C1015.84 120.973 991.903 97.5884 991.903 60.5784C991.903 23.5685 1015.84 0.184129 1053.95 0.184129C1084.89 0.184129 1106.8 17.6764 1110.3 45.664H1080.29C1078.63 32.9591 1068.5 25.5939 1053.03 25.5939C1034.07 25.5939 1022.1 39.0354 1022.1 60.5784C1022.1 82.1215 1034.07 95.563 1053.03 95.563C1068.5 95.563 1078.63 88.1978 1080.29 75.4929H1110.3C1106.8 103.48 1084.89 120.973 1053.95 120.973ZM1185.61 120.973C1147.12 120.973 1125.03 95.7471 1125.03 61.4991C1125.03 22.4637 1149.7 0 1185.79 0C1221.7 0 1243.98 21.7272 1243.98 57.6324V62.6039H1163.51C1160.38 62.4197 1156.7 60.3943 1154.67 58.1848L1150.07 63.3404C1153.02 65.9182 1155.96 69.7849 1156.51 72.5468C1160.01 88.3819 1170.32 95.563 1187.26 95.563C1201.81 95.563 1211.39 88.5661 1214.15 77.3342H1244.16C1240.48 101.271 1221.14 120.973 1185.61 120.973ZM1213.96 45.664C1211.75 31.3019 1202.18 23.9368 1185.05 23.9368C1169.04 23.9368 1158.17 32.4067 1155.78 45.664H1213.96Z" fill="white"/>
</svg>
