<svg width="206" height="28" viewBox="0 0 206 28" fill="none" xmlns="http://www.w3.org/2000/svg">
<g id="wordmark">
<path id="Vector" fill-rule="evenodd" clip-rule="evenodd" d="M10.0302 20.3871C3.65843 20.3871 0 16.2104 0 10.5398C0 4.07658 4.08524 0.357178 10.0607 0.357178C16.0057 0.357178 19.6946 3.95463 19.6946 9.89958V10.7227H6.37176C5.85348 10.6922 5.24374 10.3569 4.90839 9.99104L4.14622 10.8447C4.63401 11.2715 5.1218 11.9117 5.21326 12.369C5.79251 14.9909 7.49977 16.1799 10.3046 16.1799C12.713 16.1799 14.2984 15.0214 14.7557 13.1617H19.7251C19.1154 17.125 15.9142 20.3871 10.0302 20.3871ZM14.7253 7.91793C14.3593 5.53995 12.774 4.32047 9.93873 4.32047C7.28637 4.32047 5.48764 5.72287 5.09131 7.91793H14.7253ZM27.3468 5.87531L28.4139 5.99725C29.5114 2.21688 31.4016 0.387665 34.6027 0.387665C37.7733 0.387665 39.5111 2.27785 39.9989 5.93628H41.0964C42.011 2.27785 44.2061 0.387665 47.7426 0.387665C51.9193 0.387665 54.0838 3.25343 54.0838 9.19838V20.0212H49.023V9.74714C49.023 6.30212 48.0474 4.80827 45.6085 4.80827C42.4683 4.80827 41.2793 7.55208 41.2793 12.0337V20.0212H36.188V9.1374C36.188 6.27164 35.0295 4.80827 32.865 4.80827C29.6333 4.80827 28.4444 7.88744 28.4444 11.4239V20.0212H23.3835V0.753507H28.3529V1.30227C28.3529 4.04609 27.3468 4.47291 27.3468 5.87531ZM67.3151 20.3871C60.9434 20.3871 57.285 16.2104 57.285 10.5398C57.285 4.07658 61.3702 0.357178 67.3456 0.357178C73.2906 0.357178 76.9795 3.95463 76.9795 9.89958V10.7227H63.6567C63.1384 10.6922 62.5287 10.3569 62.1934 9.99104L61.4312 10.8447C61.919 11.2715 62.4068 11.9117 62.4982 12.369C63.0775 14.9909 64.7847 16.1799 67.5895 16.1799C69.998 16.1799 71.5833 15.0214 72.0406 13.1617H77.01C76.4002 17.125 73.1991 20.3871 67.3151 20.3871ZM72.0101 7.91793C71.6443 5.53995 70.059 4.32047 67.2237 4.32047C64.5713 4.32047 62.7726 5.72287 62.3763 7.91793H72.0101ZM80.6684 20.0212V0.753507H85.6378V1.30227C85.6378 4.2595 84.6317 4.7168 84.6317 6.24115L85.6987 6.3631C86.7353 2.52175 88.1072 0.387665 92.7717 0.387665L92.5583 5.72287C92.04 5.6619 91.5522 5.6619 91.1254 5.6619C87.5584 5.6619 85.7292 7.73501 85.7292 11.7288V20.0212H80.6684ZM106.338 17.4603C107.07 17.3384 107.802 17.2774 108.472 17.2774C112.039 17.2774 114.692 18.8932 114.692 21.8504C114.692 27.0637 108.686 27.6429 95.1497 27.6429V23.3443C106.613 23.3443 109.753 23.1614 109.753 21.0883C109.753 19.8993 108.808 19.381 106.613 19.381C104.966 19.381 101.339 19.7773 97.6801 20.4785L97.0094 17.3384C100.881 16.6677 104.966 15.7531 106.887 14.625V13.7714C104.936 14.4421 103.015 14.808 101.278 14.808C97.2838 14.808 94.2656 12.5824 94.2656 8.10085C94.2656 3.19246 98.1984 0.387665 103.838 0.387665C107.68 0.387665 110.607 2.46077 110.85 5.32654H111.765C112.405 1.85104 113.655 0.387665 116.338 0.387665H116.826L116.612 5.60092H115.942C114.936 5.60092 114.234 5.75336 113.686 6.08871C114.021 6.8204 114.204 7.58257 114.204 8.4362C114.204 12.5519 111.491 15.5092 106.308 16.942L106.338 17.4603ZM109.265 8.19231C109.265 5.93628 107.375 4.56437 104.235 4.56437C101.095 4.56437 99.2044 5.93628 99.2044 8.19231C99.2044 10.6617 100.942 11.7593 104.265 11.7593C107.558 11.7593 109.265 10.6617 109.265 8.19231ZM128.197 20.3871C121.826 20.3871 118.167 16.2104 118.167 10.5398C118.167 4.07658 122.253 0.357178 128.228 0.357178C134.173 0.357178 137.862 3.95463 137.862 9.89958V10.7227H124.539C124.021 10.6922 123.411 10.3569 123.076 9.99104L122.313 10.8447C122.801 11.2715 123.289 11.9117 123.381 12.369C123.96 14.9909 125.667 16.1799 128.472 16.1799C130.88 16.1799 132.466 15.0214 132.923 13.1617H137.892C137.283 17.125 134.081 20.3871 128.197 20.3871ZM132.892 7.91793C132.527 5.53995 130.941 4.32047 128.106 4.32047C125.454 4.32047 123.655 5.72287 123.259 7.91793H132.892ZM145.514 5.87531L146.581 5.99725C147.648 2.3998 150.087 0.387665 153.867 0.387665C158.623 0.387665 161.032 3.25343 161.032 9.19838V20.0212H155.971V9.74714C155.971 6.30212 154.752 4.80827 151.825 4.80827C148.075 4.80827 146.612 7.88744 146.612 11.4239V20.0212H141.551V0.753507H146.52V1.30227C146.52 4.04609 145.514 4.47291 145.514 5.87531ZM174.507 20.3871C168.196 20.3871 164.233 16.5152 164.233 10.3874C164.233 4.2595 168.196 0.387665 174.507 0.387665C179.629 0.387665 183.257 3.28392 183.836 7.91793H178.867C178.592 5.81433 176.916 4.59486 174.355 4.59486C171.214 4.59486 169.233 6.8204 169.233 10.3874C169.233 13.9543 171.214 16.1799 174.355 16.1799C176.916 16.1799 178.592 14.9604 178.867 12.8568H183.836C183.257 17.4908 179.629 20.3871 174.507 20.3871ZM196.305 20.3871C189.933 20.3871 186.275 16.2104 186.275 10.5398C186.275 4.07658 190.36 0.357178 196.336 0.357178C202.281 0.357178 205.97 3.95463 205.97 9.89958V10.7227H192.647C192.128 10.6922 191.519 10.3569 191.183 9.99104L190.421 10.8447C190.909 11.2715 191.397 11.9117 191.488 12.369C192.067 14.9909 193.775 16.1799 196.58 16.1799C198.988 16.1799 200.573 15.0214 201.031 13.1617H206C205.39 17.125 202.189 20.3871 196.305 20.3871ZM201 7.91793C200.634 5.53995 199.049 4.32047 196.214 4.32047C193.561 4.32047 191.763 5.72287 191.366 7.91793H201Z" fill="#252539"/>
</g>
</svg>
